<svg width="32" height="32" viewBox="0 0 32 32" fill="none" xmlns="http://www.w3.org/2000/svg">
    <path d="M6 3C6 1.89543 6.89543 1 8 1H17.9642C18.5186 1 19.0481 1.23009 19.4263 1.63536L22.3333 4.75L26.4621 9.17369C26.8078 9.54403 27 10.0317 27 10.5383V29C27 30.1046 26.1046 31 25 31H8C6.89543 31 6 30.1046 6 29V3Z" fill="#E4E2E0"/>
    <mask id="mask0" mask-type="alpha" maskUnits="userSpaceOnUse" x="6" y="1" width="21" height="30">
        <path d="M6 3C6 1.89543 6.89543 1 8 1H19.1309C19.6853 1 20.2148 1.23009 20.593 1.63536L22.9167 4.125L26.4621 7.92369C26.8078 8.29403 27 8.78174 27 9.28833V29C27 30.1046 26.1046 31 25 31H8C6.89543 31 6 30.1046 6 29V3Z" fill="#085FF7"/>
    </mask>
    <g mask="url(#mask0)">
        <path d="M30.5 11L17.6666 11L17.6666 -2.75L24.0833 4.125L30.5 11Z" fill="#D4D2D0"/>
        <rect x="6" y="21" width="21" height="10" fill="#E4E2E0"/>
        <rect x="16.5" y="6" width="5.83333" height="6.25" fill="#E4E2E0"/>
        <path d="M24.6132 6.44268C25.2098 7.0819 24.7565 8.125 23.8821 8.125L21.35 8.125C20.7977 8.125 20.35 7.67728 20.35 7.125L20.35 4.41202C20.35 3.5044 21.4617 3.06618 22.081 3.7297L23.2666 5L24.6132 6.44268Z" fill="#D4D2D0"/>
    </g>
    <rect x="11.0167" y="1" width="9.33333" height="10" rx="1" fill="#E4E2E0"/>
    <rect x="17.6667" y="8.125" width="9.33333" height="10" rx="1" fill="#E4E2E0"/>
    <path d="M11.5 23.2C11.5 22.9239 11.7239 22.7 12 22.7H21C21.2761 22.7 21.5 22.9239 21.5 23.2V23.5C21.5 23.7761 21.2761 24 21 24H12C11.7239 24 11.5 23.7761 11.5 23.5V23.2Z" fill="#B4B2B1"/>
    <path d="M16.182 10.1464C16.2552 10.0732 16.3455 10.0275 16.44 10.0092C16.5976 9.97864 16.767 10.0244 16.8891 10.1464L20.4246 13.682C20.6199 13.8772 20.6199 14.1938 20.4246 14.3891L20.2125 14.6012C20.0172 14.7965 19.7006 14.7965 19.5054 14.6012L17.1499 12.2457V19.5C17.1499 19.7761 16.926 20 16.6499 20H16.3499C16.0738 20 15.8499 19.7761 15.8499 19.5V12.317L13.5657 14.6012C13.3704 14.7965 13.0538 14.7965 12.8586 14.6012L12.6464 14.3891C12.4512 14.1938 12.4512 13.8772 12.6464 13.682L16.182 10.1464Z" fill="#B4B2B1"/>
</svg>