<svg width="32" height="32" viewBox="0 0 32 32" fill="none" xmlns="http://www.w3.org/2000/svg">
    <path d="M6 3C6 1.89543 6.89543 1 8 1H17.9642C18.5186 1 19.0481 1.23009 19.4263 1.63536L22.3333 4.75L26.4621 9.17369C26.8078 9.54403 27 10.0317 27 10.5383V29C27 30.1046 26.1046 31 25 31H8C6.89543 31 6 30.1046 6 29V3Z" fill="#E4E2E0"/>
    <mask id="mask0" mask-type="alpha" maskUnits="userSpaceOnUse" x="6" y="1" width="21" height="30">
        <path d="M6 3C6 1.89543 6.89543 1 8 1H19.1309C19.6853 1 20.2148 1.23009 20.593 1.63536L22.9167 4.125L26.4621 7.92369C26.8078 8.29403 27 8.78174 27 9.28833V29C27 30.1046 26.1046 31 25 31H8C6.89543 31 6 30.1046 6 29V3Z" fill="black"/>
    </mask>
    <g mask="url(#mask0)">
        <rect x="6" y="21" width="21.2904" height="10" fill="#9D2B6B"/>
        <path d="M30.5 11L17.6666 11L17.6666 -2.75L24.0833 4.125L30.5 11Z" fill="#D4D2D0"/>
        <rect x="16.5" y="6" width="5.83333" height="6.25" fill="#E4E2E0"/>
        <path d="M24.6132 6.44268C25.2098 7.0819 24.7565 8.125 23.8821 8.125L21.35 8.125C20.7977 8.125 20.35 7.67728 20.35 7.125L20.35 4.41202C20.35 3.5044 21.4617 3.06618 22.081 3.7297L23.2666 5L24.6132 6.44268Z" fill="#D4D2D0"/>
    </g>
    <rect x="11.0167" y="1" width="9.33333" height="10" rx="1" fill="#E4E2E0"/>
    <rect x="17.6667" y="8.125" width="9.33333" height="10" rx="1" fill="#E4E2E0"/>
    <rect x="8.86363" y="4" width="8.59091" height="1" rx="0.5" fill="#D4D2D0"/>
    <rect x="8.86363" y="6" width="8.59091" height="1" rx="0.5" fill="#D4D2D0"/>
    <rect x="8.86363" y="8" width="8.59091" height="1" rx="0.5" fill="#D4D2D0"/>
    <rect x="8.86363" y="11" width="15.2727" height="1" rx="0.5" fill="#D4D2D0"/>
    <rect x="8.86363" y="13" width="15.2727" height="1" rx="0.5" fill="#D4D2D0"/>
    <rect x="8.86363" y="15" width="15.2727" height="1" rx="0.5" fill="#D4D2D0"/>
    <path d="M13.2158 28H12.3076V24.4727H11.1445V23.7168H14.3789V24.4727H13.2158V28ZM18.501 28H17.4639L16.4678 26.3799L15.4717 28H14.499L15.9199 25.791L14.5898 23.7168H15.5918L16.5146 25.2578L17.4199 23.7168H18.3984L17.0537 25.8408L18.501 28ZM20.6924 28H19.7842V24.4727H18.6211V23.7168H21.8555V24.4727H20.6924V28Z" fill="white"/>
</svg>