<svg width="132" height="117" viewBox="0 0 132 117" fill="none" xmlns="http://www.w3.org/2000/svg">
<path d="M65.2801 117C97.5887 117 123.78 90.8087 123.78 58.5C123.78 26.1913 97.5887 0 65.2801 0C32.9714 0 6.78009 26.1913 6.78009 58.5C6.78009 90.8087 32.9714 117 65.2801 117Z" fill="#F2F2F2"/>
<path d="M73.6714 56.0342C71.8685 58.1533 69.834 60.0429 67.6362 61.6538L69.0771 63.6198C71.4275 61.8971 73.6016 59.8778 75.5279 57.6137L73.6714 56.0342ZM64.6531 63.6094C62.193 65.0416 59.6306 66.1076 57.0863 66.7625L57.6939 69.1231C60.459 68.4113 63.2289 67.259 65.8794 65.7159L64.6531 63.6094ZM53.7122 67.3883C50.8413 67.7089 48.1377 67.4534 45.7555 66.6269L44.9565 68.9297C47.6963 69.8804 50.7639 70.1702 53.9827 69.8107L53.7122 67.3883ZM42.6672 65.1133C42.1542 64.776 41.6656 64.4039 41.2026 63.9975C39.4886 62.4812 38.4524 60.8022 38.0716 59.1011L35.6929 59.6337C36.1897 61.8526 37.5009 63.9772 39.5911 65.8262C40.1424 66.3103 40.7209 66.7507 41.3279 67.1499L42.6672 65.1133ZM38.1346 56.0568C38.826 53.6847 40.9326 52.3201 43.5068 52.7714L43.9277 50.3705C40.1105 49.7013 36.8285 51.8274 35.7944 55.3747L38.1346 56.0568ZM46.4326 53.9634C47.0154 54.3301 47.6029 54.7752 48.1911 55.2996C49.6353 56.5869 50.7027 58.0874 51.4261 59.7826L53.668 58.826C52.8054 56.8045 51.5278 55.0086 49.813 53.48C49.1259 52.8675 48.4306 52.3408 47.7308 51.9004L46.4326 53.9634ZM52.3549 63.0079C52.7728 65.5092 52.6153 68.2517 51.9858 71.0629L54.3644 71.5956C55.0581 68.4974 55.2334 65.4455 54.7591 62.6063L52.3549 63.0079ZM51.0127 74.4258C50.3087 76.4036 49.4267 78.1519 48.9573 78.7027C48.249 79.5265 47.6198 80.2022 46.7442 81.024L48.4124 82.8012C49.3611 81.9107 50.0455 81.1759 50.809 80.2877C51.5116 79.4634 52.5144 77.4758 53.3091 75.2432L51.0127 74.4258ZM44.0453 83.2712C41.8966 84.8548 39.4998 86.1807 36.8397 87.1608L37.6824 89.448C40.5672 88.3851 43.1647 86.9482 45.4914 85.2333L44.0453 83.2712ZM33.4889 88.1688C31.6098 88.6122 29.6491 88.8782 27.6048 88.9511C26.8273 88.9782 26.0633 88.9848 25.2887 88.971L25.2454 91.4081C26.0627 91.4226 26.8695 91.4157 27.6907 91.3871C29.8963 91.3084 32.0153 91.021 34.0487 90.5412L33.4889 88.1688ZM21.7275 88.77C19.0695 88.5202 16.3275 88.0453 13.5012 87.3446L12.9147 89.7105C15.8564 90.4398 18.718 90.9354 21.4994 91.1968L21.7275 88.77ZM10.0313 86.3838C7.46517 85.6006 4.83326 84.6399 2.1357 83.5014L1.18795 85.7471C3.96114 86.9175 6.67169 87.9069 9.31975 88.7151L10.0313 86.3838Z" fill="#816BFF"/>
<path fill-rule="evenodd" clip-rule="evenodd" d="M77.9629 58.4275L128.509 6.68411L79.0371 38.448L77.9629 58.4275Z" fill="#FD980A"/>
<path fill-rule="evenodd" clip-rule="evenodd" d="M75.2872 35.8284C76.6511 50.8505 77.5431 58.3616 77.963 58.3616C78.6791 58.4055 79.0372 51.7676 79.0372 38.448L129.728 5.87895L75.2872 35.8284Z" fill="#FF5A1F"/>
<path fill-rule="evenodd" clip-rule="evenodd" d="M59.5138 28.9305L129.728 5.87893L75.3731 35.8254L59.4966 30.0825C59.1801 29.968 59.0163 29.6186 59.1308 29.3022C59.1945 29.126 59.3358 28.9889 59.5138 28.9305Z" fill="#FEB100"/>
<path fill-rule="evenodd" clip-rule="evenodd" d="M129.728 5.87893L106.942 47.8527C106.799 48.1166 106.485 48.2368 106.202 48.1359L79.0372 38.4479L129.728 5.87893Z" fill="#FEB100"/>
</svg>
